<?xml version="1.0" encoding="utf-8"?>
<!-- Generator: Adobe Illustrator 28.2.0, SVG Export Plug-In . SVG Version: 6.00 Build 0)  -->
<svg version="1.1" id="Layer_1" xmlns="http://www.w3.org/2000/svg" xmlns:xlink="http://www.w3.org/1999/xlink" x="0px" y="0px"
	 viewBox="0 0 500 500" style="enable-background:new 0 0 500 500;" xml:space="preserve">
<style type="text/css">
	.st0{fill:#FFFFFF;}
</style>
<g>
	<path d="M484,396.32c-3.29,5.06-7.96,6.41-13.9,6.41c-146.32-0.13-292.64-0.09-438.96-0.18c-3.19,0-6.7-0.67-9.5-2.11
		c-3.53-1.82-3.99-5.65-3.99-9.52c0.06-62.99,0.04-125.98,0.04-188.97c0-25.2-0.01-50.39,0-75.59c0-8.31,3.44-11.84,11.87-11.95
		c8.32-0.11,16.64-0.02,25.5-0.02c0-6.59-0.02-12.77,0-18.95c0.02-6.37,1.8-9.07,7.66-11.45c28.58-11.61,58.16-15.03,88.73-11.2
		c35.31,4.42,67.23,17.44,96.46,37.41c2.28,1.56,3.75,1.45,5.95-0.06c27.73-19.13,58.15-31.74,91.52-36.77
		c31.65-4.77,62.56-1.8,92.43,10.1c7.22,2.88,8.77,5.28,8.79,13.01c0.01,5.46,0.04,10.93,0.08,16.39c0,0.28,0.17,0.56,0.49,1.51
		c7.74,0,15.72,0.16,23.69-0.05c5.82-0.16,10.39,1.53,13.12,6.94C484,212.95,484,304.63,484,396.32z M240.78,373.66
		c0.08-1.62,0.17-2.65,0.17-3.68c0.01-79.08-0.01-158.16,0.07-237.24c0-2.79-0.84-4.57-3.19-5.86
		c-12.58-6.95-24.67-15.03-37.81-20.68c-38.99-16.78-79.12-20.68-120.22-7.78c-3.72,1.17-5.14,2.8-5.14,6.92
		c0.14,79.08,0.1,158.16,0.1,237.23c0,1.64,0,3.29,0,5.22C134.18,330.6,188.68,342.39,240.78,373.66z M426.92,347.94
		c0-2.69,0-4.5,0-6.3c0-47.95,0-95.91,0-143.86c0-31.11-0.02-62.22,0.04-93.33c0-2.64-0.12-4.76-3.34-5.4
		c-13.03-2.57-25.95-6.7-39.09-7.61c-44.03-3.04-83.64,10.39-119.86,34.89c-2.68,1.81-4.05,3.66-4.04,7.26
		c0.14,78.46,0.11,156.91,0.12,235.37c0,1.43,0.13,2.86,0.23,4.83c25.08-15.57,51.4-26.25,79.95-31.17
		C369.76,337.66,398.25,339.13,426.92,347.94z M37.49,382.49c59.45,0,118.59,0,178.91,0c-2.39-1.27-3.68-2-5.01-2.66
		c-20.52-10.18-42.04-16.89-64.89-19.33c-25.77-2.76-50.79-0.06-74.95,9.52c-10.73,4.25-16.48,0.47-16.48-10.96
		c0-73.13,0-146.26,0-219.39c0-1.77,0-3.54,0-5.36c-6.18,0-11.84,0-17.58,0C37.49,217.24,37.49,299.86,37.49,382.49z M446.61,134.19
		c0,2.16,0,3.95,0,5.75c0,73.16,0,146.32,0,219.48c0,10.84-5.96,14.85-15.99,10.78c-13.86-5.62-28.28-9.12-43.15-10.25
		c-34.56-2.63-67.14,4.74-97.98,20.29c-1.11,0.56-2.11,1.31-3.8,2.38c60.02,0,119.16,0,178.54,0c0-82.91,0-165.56,0-248.43
		C458.4,134.19,452.83,134.19,446.61,134.19z"/>
	<path class="st0" d="M240.78,373.66c-52.1-31.27-106.6-43.06-166.02-25.88c0-1.93,0-3.57,0-5.22c0-79.08,0.04-158.16-0.1-237.23
		c-0.01-4.12,1.42-5.75,5.14-6.92c41.1-12.89,81.23-8.99,120.22,7.78c13.14,5.65,25.23,13.74,37.81,20.68
		c2.35,1.3,3.2,3.07,3.19,5.86c-0.08,79.08-0.07,158.16-0.07,237.24C240.95,371.01,240.86,372.04,240.78,373.66z"/>
	<path class="st0" d="M426.92,347.94c-28.66-8.82-57.15-10.28-86-5.32c-28.55,4.91-54.88,15.6-79.95,31.17
		c-0.1-1.98-0.23-3.41-0.23-4.83c-0.01-78.46,0.03-156.91-0.12-235.37c-0.01-3.6,1.36-5.44,4.04-7.26
		c36.22-24.5,75.83-37.93,119.86-34.89c13.14,0.91,26.06,5.03,39.09,7.61c3.21,0.63,3.34,2.76,3.34,5.4
		c-0.06,31.11-0.04,62.22-0.04,93.33c0,47.95,0,95.91,0,143.86C426.92,343.45,426.92,345.25,426.92,347.94z"/>
	<path class="st0" d="M37.49,382.49c0-82.63,0-165.24,0-248.18c5.74,0,11.39,0,17.58,0c0,1.82,0,3.59,0,5.36
		c0,73.13,0,146.26,0,219.39c0,11.44,5.74,15.21,16.48,10.96c24.16-9.58,49.18-12.27,74.95-9.52c22.85,2.44,44.38,9.15,64.89,19.33
		c1.33,0.66,2.62,1.39,5.01,2.66C156.08,382.49,96.94,382.49,37.49,382.49z"/>
	<path class="st0" d="M446.61,134.19c6.22,0,11.79,0,17.61,0c0,82.86,0,165.51,0,248.43c-59.39,0-118.52,0-178.54,0
		c1.69-1.06,2.7-1.82,3.8-2.38c30.84-15.54,63.42-22.92,97.98-20.29c14.87,1.13,29.29,4.63,43.15,10.25
		c10.03,4.07,15.99,0.06,15.99-10.78c0-73.16,0-146.32,0-219.48C446.61,138.15,446.61,136.35,446.61,134.19z"/>
</g>
</svg>
