<?xml version="1.0" encoding="utf-8"?>
<!-- Generator: Adobe Illustrator 28.2.0, SVG Export Plug-In . SVG Version: 6.00 Build 0)  -->
<svg version="1.1" id="Layer_1" xmlns="http://www.w3.org/2000/svg" xmlns:xlink="http://www.w3.org/1999/xlink" x="0px" y="0px"
	 viewBox="0 0 500 500" style="enable-background:new 0 0 500 500;" xml:space="preserve">
<style type="text/css">
	.st0{fill:none;stroke:#000000;stroke-width:16;stroke-miterlimit:10;}
</style>
<g>
	<path class="st0" d="M242.48,33.56c4.79,0,9.58,0,14.37,0c0.47,0.26,0.92,0.68,1.42,0.77c9.01,1.66,16.5,6,22.95,12.46
		c57.66,57.79,115.4,115.51,172.99,173.37c3.41,3.42,6.14,7.69,8.46,11.95c1.83,3.36,2.56,7.33,3.77,11.03c0,4.23,0,8.45,0,12.68
		c-0.32,1.06-0.7,2.12-0.96,3.19c-3.9,15.9-13.98,25.68-29.76,29.41c-4.72,1.12-9.7,1.08-15.02,1.62c0,1.58,0,3.23,0,4.88
		c-0.08,41.41-0.02,82.82-0.28,124.23c-0.16,25.37-16.91,44.92-41.99,46.42c-24.84,1.49-49.84,0.6-74.76,0.42
		c-6.49-0.05-10.76-4.99-11.31-11.52c-0.17-1.96-0.18-3.94-0.18-5.91c-0.05-31.27-0.05-62.54-0.15-93.81
		c-0.05-16.6-8.12-24.54-24.73-24.57c-11.55-0.02-23.1-0.1-34.65,0.06c-3.19,0.04-6.5,0.44-9.54,1.38
		c-9.47,2.95-14.21,10.48-14.26,22.37c-0.08,22.68-0.06,45.35-0.09,68.03c-0.02,10.42,0.04,20.85-0.15,31.27
		c-0.13,7.25-3.59,11.13-10.7,12.49c-1.65,0.31-3.36,0.4-5.04,0.4c-21.41,0.02-42.82,0.07-64.23-0.04
		c-3.77-0.02-7.61-0.42-11.29-1.25c-22.81-5.14-37.03-22.86-37.1-46.36c-0.12-41.27-0.08-82.54-0.11-123.81c0-1.63,0-3.26,0-4.87
		c-4.26-0.23-7.97-0.04-11.53-0.68c-16.48-2.96-28.08-12.13-33.12-28.25c-5.04-16.13,0.05-29.87,11.7-41.51
		c55.4-55.35,110.84-110.65,166.18-166.07C221.87,44.86,230.27,36.48,242.48,33.56z"/>
</g>
</svg>
