<?xml version="1.0" encoding="utf-8"?>
<!-- Generator: Adobe Illustrator 28.2.0, SVG Export Plug-In . SVG Version: 6.00 Build 0)  -->
<svg version="1.1" id="Layer_1" xmlns="http://www.w3.org/2000/svg" xmlns:xlink="http://www.w3.org/1999/xlink" x="0px" y="0px"
	 viewBox="0 0 500 500" style="enable-background:new 0 0 500 500;" xml:space="preserve">
<style type="text/css">
	.st0{fill:#FFFFFF;}
</style>
<g>
	<path class="st0" d="M45.2,109.08c0-21.29,0-42.58,0-63.88c136.53,0,273.07,0,409.6,0c0,136.53,0,273.07,0,409.6
		c-136.53,0-273.07,0-409.6,0c0-21.56,0-43.12,0-64.67c0.22,0.48,0.53,0.94,0.64,1.45c5.76,26.22,24.3,41.39,50.89,41.4
		c111.24,0.03,222.47-0.04,333.71,0.07c16.09,0.02,23.77-11.27,23.72-23.83c-0.33-78.1-0.16-156.21-0.17-234.31
		c0-1.6,0.03-3.2-0.07-4.79c-0.66-10.26-9.93-18.93-20.16-18.89c-3.88,0.02-6.56,2.22-6.94,5.7c-0.4,3.72,1.43,6.25,5.25,7.24
		c7.7,2,8.51,3.03,8.51,10.94c0,77.97,0,155.94,0,233.92c0,8.24-2.36,10.57-10.72,10.57c-110.84,0-221.67,0.03-332.51-0.09
		c-4.96-0.01-10.09-0.83-14.85-2.26c-15.46-4.64-25.54-21.07-23.62-37.75c1.88-16.4,15.79-29.86,32-30.96
		c8.2-0.56,10.1-2.6,10.1-10.91c0-56.02,0-112.03,0-168.05c0-1.56,0-3.12,0-5.13c1.86,0,3.3,0,4.73,0c8.91,0,17.83,0,26.74,0
		c1.06,0,2.13,0.03,3.19-0.02c4.64-0.24,7.53-2.72,7.61-6.51c0.09-3.92-2.89-6.68-7.77-6.75c-8.78-0.13-17.56-0.04-26.34-0.05
		c-2.62,0-5.24,0-8.17,0c0-2.12,0-3.7,0-5.29c0-23.55,0.02-47.1-0.01-70.65c-0.01-6.17-2.7-9.08-8.22-8.78
		c-17.41,0.96-31.24,8.53-40.18,23.55C49.12,95.71,47.6,102.66,45.2,109.08z M256.76,362.17c16.49,0,32.99,0,49.48,0
		c13.83,0,27.67,0.16,41.5-0.16c2.22-0.05,5.37-1.72,6.32-3.56c0.96-1.85-0.23-4.86-0.61-7.33c-0.09-0.58-0.75-1.07-1.16-1.6
		c-45.96-60.09-91.92-120.18-137.87-180.27c-14.21-18.59-28.38-37.21-42.68-55.74c-1.39-1.8-3.34-3.68-5.4-4.33
		c-4.88-1.54-8.26,2.16-8.26,8.66c-0.02,78.35-0.02,156.7,0,235.05c0,7.15,2.19,9.28,9.28,9.28
		C197.17,362.17,226.96,362.17,256.76,362.17z M370.14,250.18c0,19.69,0,39.38,0,59.07c0,22.35-0.03,44.7,0.03,67.05
		c0.02,7.97,4.89,13.3,12.82,14.01c3.96,0.35,7.97,0.23,11.96,0.22c11.7-0.03,16.7-5.07,16.7-16.79c0-72.51,0.01-145.01-0.01-217.52
		c0-11.7,1.52-23.72-0.63-35.02c-2.11-11.14-7.99-21.57-12.22-32.31c-0.29-0.74-0.6-1.48-0.88-2.22c-1.23-3.29-3-6.13-6.94-6.17
		c-4.14-0.05-5.88,2.91-7.23,6.33c-3.93,10-8.08,19.92-11.88,29.97c-1.05,2.78-1.66,5.9-1.67,8.87
		C370.1,167.17,370.14,208.68,370.14,250.18z M291.92,164.42c17.7,0,35.39,0.01,53.09-0.01c1.59,0,3.22,0.01,4.77-0.29
		c3.28-0.64,5.11-2.75,5.21-6.1c0.11-3.52-1.64-5.85-5.11-6.58c-1.67-0.35-3.44-0.34-5.16-0.34c-35.12-0.02-70.25-0.01-105.37-0.01
		c-1.2,0-2.4-0.03-3.59,0.07c-4.35,0.38-6.95,2.96-6.87,6.75c0.08,3.64,2.59,6.07,6.76,6.43c1.32,0.11,2.66,0.08,3.99,0.08
		C257.06,164.42,274.49,164.42,291.92,164.42z"/>
	<path d="M45.2,109.08c2.4-6.42,3.92-13.36,7.36-19.15c8.93-15.01,22.77-22.58,40.18-23.55c5.52-0.31,8.21,2.6,8.22,8.78
		c0.03,23.55,0.01,47.1,0.01,70.65c0,1.58,0,3.16,0,5.29c2.93,0,5.55,0,8.17,0c8.78,0,17.56-0.08,26.34,0.05
		c4.87,0.07,7.86,2.84,7.77,6.75c-0.09,3.79-2.97,6.27-7.61,6.51c-1.06,0.06-2.13,0.02-3.19,0.02c-8.91,0-17.83,0-26.74,0
		c-1.43,0-2.87,0-4.73,0c0,2.02,0,3.57,0,5.13c0,56.02,0,112.03,0,168.05c0,8.31-1.9,10.35-10.1,10.91
		c-16.21,1.1-30.12,14.56-32,30.96c-1.91,16.68,8.17,33.11,23.62,37.75c4.76,1.43,9.89,2.25,14.85,2.26
		c110.84,0.12,221.67,0.1,332.51,0.09c8.37,0,10.72-2.32,10.72-10.57c0-77.97,0-155.94,0-233.92c0-7.91-0.81-8.94-8.51-10.94
		c-3.82-0.99-5.65-3.52-5.25-7.24c0.37-3.47,3.06-5.68,6.94-5.7c10.23-0.04,19.5,8.62,20.16,18.89c0.1,1.59,0.07,3.19,0.07,4.79
		c0,78.11-0.16,156.21,0.17,234.31c0.05,12.57-7.63,23.85-23.72,23.83c-111.24-0.12-222.47-0.04-333.71-0.07
		c-26.59-0.01-45.13-15.17-50.89-41.4c-0.11-0.5-0.42-0.97-0.64-1.45C45.2,296.44,45.2,202.76,45.2,109.08z M87.55,80.65
		c-0.66,0.07-1.05,0.07-1.43,0.15c-14.61,3.06-27.69,17.15-27.61,36.67c0.29,75.98,0.12,151.96,0.13,227.94
		c0,1.24,0.14,2.48,0.26,4.45c7.22-7.03,14.98-11.8,24.18-13.58c3.59-0.7,4.57-2.03,4.56-5.68c-0.12-81.84-0.09-163.67-0.09-245.51
		C87.55,83.64,87.55,82.19,87.55,80.65z"/>
	<path d="M256.76,362.17c-29.8,0-59.59,0-89.39,0c-7.1,0-9.28-2.13-9.28-9.28c-0.02-78.35-0.02-156.7,0-235.05
		c0-6.5,3.38-10.19,8.26-8.66c2.06,0.65,4.01,2.53,5.4,4.33c14.3,18.52,28.46,37.15,42.68,55.74
		c45.95,60.09,91.91,120.18,137.87,180.27c0.4,0.53,1.07,1.02,1.16,1.6c0.39,2.48,1.57,5.48,0.61,7.33
		c-0.95,1.84-4.1,3.51-6.32,3.56c-13.83,0.32-27.67,0.16-41.5,0.16C289.75,362.17,273.26,362.17,256.76,362.17z M171.71,135.4
		c0,71.69,0,142.37,0,212.99c54.29,0,108.3,0,162.88,0C280.21,277.29,226.23,206.7,171.71,135.4z"/>
	<path d="M370.14,250.18c0-41.51-0.03-83.02,0.07-124.52c0.01-2.97,0.62-6.09,1.67-8.87c3.8-10.05,7.95-19.97,11.88-29.97
		c1.34-3.42,3.09-6.37,7.23-6.33c3.94,0.04,5.71,2.89,6.94,6.17c0.28,0.75,0.59,1.48,0.88,2.22c4.23,10.74,10.1,21.17,12.22,32.31
		c2.15,11.31,0.62,23.32,0.63,35.02c0.02,72.51,0.01,145.01,0.01,217.52c0,11.72-5,16.76-16.7,16.79c-3.99,0.01-8,0.13-11.96-0.22
		c-7.93-0.7-12.8-6.04-12.82-14.01c-0.06-22.35-0.03-44.7-0.03-67.05C370.14,289.56,370.14,269.87,370.14,250.18z M397.94,348.55
		c0-71,0-141.55,0-212.11c-4.88,0-9.47,0-14.17,0c0,70.79,0,141.35,0,212.11C388.58,348.55,393.16,348.55,397.94,348.55z
		 M397.97,362.4c-4.93,0-9.51,0-14.18,0c0,4.93,0,9.62,0,14.54c4.81,0,9.37,0,14.18,0C397.97,372.05,397.97,367.36,397.97,362.4z
		 M397.78,122.53c-2.27-5.69-4.38-10.97-6.92-17.32c-2.55,6.4-4.67,11.74-6.89,17.32C388.85,122.53,393.02,122.53,397.78,122.53z"/>
	<path d="M291.92,164.42c-17.43,0-34.86,0-52.29,0c-1.33,0-2.67,0.03-3.99-0.08c-4.16-0.36-6.68-2.78-6.76-6.43
		c-0.08-3.78,2.52-6.36,6.87-6.75c1.19-0.1,2.39-0.07,3.59-0.07c35.12,0,70.25-0.01,105.37,0.01c1.72,0,3.49-0.01,5.16,0.34
		c3.47,0.73,5.21,3.05,5.11,6.58c-0.1,3.35-1.93,5.46-5.21,6.1c-1.55,0.3-3.18,0.29-4.77,0.29
		C327.31,164.43,309.61,164.42,291.92,164.42z"/>
	<path class="st0" d="M87.55,80.65c0,1.54,0,2.99,0,4.44c0,81.84-0.03,163.67,0.09,245.51c0.01,3.65-0.97,4.98-4.56,5.68
		c-9.2,1.78-16.96,6.55-24.18,13.58c-0.12-1.97-0.26-3.21-0.26-4.45c-0.01-75.98,0.16-151.96-0.13-227.94
		c-0.07-19.51,13-33.61,27.61-36.67C86.5,80.72,86.89,80.72,87.55,80.65z"/>
	<path class="st0" d="M171.71,135.4c54.52,71.29,108.5,141.89,162.88,212.99c-54.58,0-108.59,0-162.88,0
		C171.71,277.77,171.71,207.1,171.71,135.4z M238.79,326.97c11.84,0,23.68-0.04,35.52,0.03c3.48,0.02,6.73-0.26,8.59-3.72
		c1.91-3.56,0.06-6.33-2.04-9.07c-24.73-32.31-49.46-64.62-74.16-96.95c-2.14-2.8-4.48-5.07-8.35-3.88
		c-4.02,1.23-4.85,4.4-4.84,8.17c0.04,32.19,0.01,64.39,0.04,96.58c0.01,6.56,2.33,8.82,8.92,8.83
		C214.57,326.99,226.68,326.97,238.79,326.97z"/>
	<path class="st0" d="M397.94,348.55c-4.78,0-9.36,0-14.17,0c0-70.77,0-141.32,0-212.11c4.7,0,9.29,0,14.17,0
		C397.94,207,397.94,277.55,397.94,348.55z"/>
	<path class="st0" d="M397.97,362.4c0,4.96,0,9.65,0,14.54c-4.81,0-9.37,0-14.18,0c0-4.92,0-9.62,0-14.54
		C388.47,362.4,393.04,362.4,397.97,362.4z"/>
	<path class="st0" d="M397.78,122.53c-4.77,0-8.94,0-13.81,0c2.22-5.58,4.34-10.92,6.89-17.32
		C393.4,111.55,395.51,116.84,397.78,122.53z"/>
	<path d="M238.79,326.97c-12.11,0-24.21,0.02-36.32-0.01c-6.59-0.01-8.91-2.27-8.92-8.83c-0.03-32.19,0-64.39-0.04-96.58
		c0-3.77,0.82-6.94,4.84-8.17c3.87-1.19,6.21,1.08,8.35,3.88c24.7,32.33,49.43,64.64,74.16,96.95c2.09,2.73,3.95,5.51,2.04,9.07
		c-1.86,3.46-5.12,3.74-8.59,3.72C262.46,326.93,250.62,326.97,238.79,326.97z M263.35,313.38c-18.81-24.6-37.17-48.6-56.14-73.41
		c0,25.28,0,49.27,0,73.41C225.84,313.38,244.16,313.38,263.35,313.38z"/>
	<path class="st0" d="M263.35,313.38c-19.19,0-37.51,0-56.14,0c0-24.14,0-48.12,0-73.41C226.18,264.77,244.54,288.78,263.35,313.38z
		"/>
</g>
</svg>
