<?xml version="1.0" encoding="utf-8"?>
<!-- Generator: Adobe Illustrator 28.2.0, SVG Export Plug-In . SVG Version: 6.00 Build 0)  -->
<svg version="1.1" id="Layer_1" xmlns="http://www.w3.org/2000/svg" xmlns:xlink="http://www.w3.org/1999/xlink" x="0px" y="0px"
	 viewBox="0 0 500 500" style="enable-background:new 0 0 500 500;" xml:space="preserve">
<style type="text/css">
	.st0{fill:#FFFFFF;}
</style>
<g>
	<path class="st0" d="M281.94,16.1c69.04,0,138.08,0,207.16,0c0,159.54,0,319.08,0,478.75c-159.56,0-319.16,0-478.75,0
		c0-1.73,0-3.6,0-5.46c3.2,3.88,7.31,4.75,12.26,4.74c98.45-0.12,196.89-0.09,295.34-0.09c8.53,0,11.04-2.49,11.07-11.13
		c0.04-13.38,0.02-26.76,0.01-40.13c-0.01-10.5-2.02-12.49-12.6-12.49c-49.46,0-98.91,0-148.37,0c-1.98,0-3.95,0-6.1,0
		c-0.14-1.64-0.3-2.69-0.3-3.74c-0.01-38.27-0.05-76.53,0.11-114.8c0.01-1.99,1.29-4.41,2.72-5.91
		c15.64-16.3,22.93-35.43,20.61-58.11c-0.2-1.98,0.62-4.74,1.98-6.12c26.49-26.74,53.12-53.34,79.79-79.9
		c1.08-1.08,2.82-1.82,4.35-2.04c3.21-0.47,6.53-0.88,9.74-0.59c2.71,0.25,5.86,0.86,7.91,2.46c27.48,21.4,54.81,42.98,82.14,64.56
		c4.6,3.63,10.79,6.67,13.04,11.48c2.27,4.86,0.75,11.6,0.47,17.49c-0.07,1.6-1.23,3.84-2.57,4.6
		c-14.12,8.07-21.11,20.39-21.29,36.35c-0.28,25.51-0.13,51.02-0.05,76.53c0.03,8.82,5.76,12.22,13.72,8.28
		c9.19-4.54,18.25-9.34,27.52-13.7c5.04-2.37,7.03-5.91,6.96-11.4c-0.19-15.86-0.07-31.73-0.06-47.6c0-1.64,0.14-3.29,0.22-4.95
		c10.66,0,20.83,0,31.47,0c0,2,0,3.67,0,5.35c0,16.02,0.11,32.05-0.06,48.07c-0.05,5,1.88,8.17,6.32,10.32
		c9.5,4.6,18.87,9.45,28.34,14.09c7.73,3.78,13.14,0.29,13.14-8.41c0.02-25.67,0.06-51.33-0.01-77
		c-0.04-15.82-7.21-27.54-20.66-35.72c-1.47-0.89-2.81-3.21-2.89-4.93c-0.33-6.67-0.28-13.37-0.11-20.06
		c0.58-23.39-14.5-39.52-32.66-42.65c-1.87-0.32-3.73-2.13-5.1-3.68c-26.72-30.14-53.4-60.31-79.96-90.6
		c-1.34-1.53-2.18-4.15-2.06-6.19c1.89-32.65-19.02-63.01-50.27-72.53C290.34,17.99,286.11,17.14,281.94,16.1z"/>
	<path d="M281.94,16.1c4.17,1.04,8.4,1.88,12.51,3.14c31.24,9.52,52.16,39.88,50.27,72.53c-0.12,2.04,0.73,4.66,2.06,6.19
		c26.55,30.29,53.23,60.46,79.96,90.6c1.38,1.55,3.23,3.36,5.1,3.68c18.17,3.13,33.25,19.26,32.66,42.65
		c-0.17,6.68-0.22,13.39,0.11,20.06c0.09,1.72,1.43,4.04,2.89,4.93c13.44,8.18,20.62,19.9,20.66,35.72
		c0.07,25.67,0.03,51.33,0.01,77c-0.01,8.7-5.41,12.19-13.14,8.41c-9.48-4.64-18.84-9.5-28.34-14.09
		c-4.44-2.15-6.37-5.32-6.32-10.32c0.17-16.02,0.06-32.04,0.06-48.07c0-1.68,0-3.35,0-5.35c-10.64,0-20.81,0-31.47,0
		c-0.08,1.67-0.22,3.31-0.22,4.95c-0.02,15.87-0.13,31.73,0.06,47.6c0.06,5.49-1.93,9.03-6.96,11.4
		c-9.27,4.37-18.33,9.16-27.52,13.7c-7.96,3.94-13.69,0.55-13.72-8.28c-0.08-25.51-0.23-51.02,0.05-76.53
		c0.18-15.97,7.17-28.29,21.29-36.35c1.34-0.76,2.5-2.99,2.57-4.6c0.27-5.89,1.8-12.63-0.47-17.49c-2.25-4.81-8.44-7.85-13.04-11.48
		c-27.33-21.58-54.66-43.16-82.14-64.56c-2.06-1.6-5.2-2.21-7.91-2.46c-3.21-0.3-6.52,0.11-9.74,0.59
		c-1.53,0.23-3.27,0.97-4.35,2.04c-26.67,26.56-53.3,53.16-79.79,79.9c-1.37,1.38-2.19,4.13-1.98,6.12
		c2.32,22.68-4.97,41.81-20.61,58.11c-1.44,1.5-2.71,3.91-2.72,5.91c-0.16,38.27-0.12,76.53-0.11,114.8c0,1.05,0.16,2.11,0.3,3.74
		c2.15,0,4.13,0,6.1,0c49.46,0,98.91,0,148.37,0c10.58,0,12.59,1.99,12.6,12.49c0.01,13.38,0.04,26.76-0.01,40.13
		c-0.03,8.64-2.54,11.13-11.07,11.13c-98.45,0-196.89-0.03-295.34,0.09c-4.95,0.01-9.06-0.86-12.26-4.74c0-18.05,0-36.1,0-54.14
		c2.81-4.18,6.89-5.08,11.66-5.02c12.9,0.17,25.81-0.12,38.7,0.16c4.31,0.09,5.45-1.17,5.43-5.45
		c-0.17-36.85-0.16-73.69-0.01-110.54c0.02-4.2-1.18-7.15-4.08-10.22c-16.56-17.56-22.83-38.6-18.67-62.21
		c5.48-31.1,30.75-54.02,62.41-57.95c2.24-0.28,4.75-1.6,6.37-3.21c29-28.82,57.9-57.74,86.7-86.76c1.51-1.52,2.56-4.2,2.59-6.36
		c0.47-31.54,19.52-57.95,49.44-68.01c4.35-1.46,8.88-2.39,13.32-3.56C270.12,16.1,276.03,16.1,281.94,16.1z M312.51,477.91
		c0-10.61,0-20.92,0-31.18c-95.55,0-190.76,0-286.01,0c0,10.55,0,20.74,0,31.18C121.85,477.91,216.96,477.91,312.51,477.91z
		 M82.43,319.56c0,37.07,0,73.65,0,110.4c21.17,0,42.07,0,63,0c0-36.9,0-73.48,0-110.49C124.3,329.27,103.43,329.19,82.43,319.56z
		 M205.65,112.4c-24.52,24.52-49.05,49.06-73.42,73.43c21.38,5.89,37.31,19.54,46.76,39.07c23.34-23.35,46.57-46.58,69.63-69.64
		C224.34,143.54,220.66,139.86,205.65,112.4z M273.32,143.32c30.95-0.1,55.51-24.83,55.4-55.79c-0.11-30.53-24.99-55.42-55.47-55.5
		c-30.69-0.08-55.9,25.37-55.74,56.27C217.66,118.8,242.64,143.42,273.32,143.32z M114.44,199.43
		c-30.26-0.73-55.64,24.16-56.28,55.19c-0.62,30.12,23.84,55.1,54.91,56.08c30.22,0.95,55.64-23.84,56.37-54.95
		C170.14,225.25,145.67,200.19,114.44,199.43z M339.8,114.49c-7.54,17.23-19.31,29.76-35.96,38.17
		c27.88,21.98,55.3,43.58,82.99,65.4c4.64-11.14,12.15-19.03,23.16-24.06C386.63,167.53,363.45,141.27,339.8,114.49z M472.31,361.57
		c0-22.02,0.04-43-0.01-63.98c-0.04-16.73-9.96-26.56-26.78-26.6c-13.99-0.04-27.98,0.19-41.96-0.06
		c-16.53-0.29-27.19,11.13-26.77,26.57c0.53,19.73,0.12,39.48,0.14,59.22c0,1.31,0.17,2.63,0.3,4.51c4.11-2.02,7.63-3.95,11.32-5.49
		c2.97-1.24,4.04-3.03,4.01-6.34c-0.18-17.1-0.11-34.2-0.07-51.3c0.02-8.49,2.78-11.24,11.1-11.24c13.99-0.02,27.98-0.02,41.96,0
		c8.17,0.01,10.88,2.72,10.88,10.91c0.02,17.41-0.03,34.82,0.07,52.23c0.01,1.46,0.54,3.65,1.57,4.26
		C462.42,356.84,467.06,358.94,472.31,361.57z M401.19,254.8c15.49,0,31.09,0,46.96,0c0-8.5,0.19-16.72-0.05-24.93
		c-0.35-11.85-10.26-21.75-22.08-22.42c-12.27-0.69-23.45,7.78-24.66,19.87C400.47,236.23,401.19,245.29,401.19,254.8z"/>
	<path class="st0" d="M264.21,16.1c-4.44,1.18-8.97,2.1-13.32,3.56c-29.92,10.06-48.97,36.47-49.44,68.01
		c-0.03,2.16-1.08,4.84-2.59,6.36c-28.79,29.03-57.7,57.94-86.7,86.76c-1.62,1.61-4.13,2.93-6.37,3.21
		c-31.66,3.93-56.93,26.86-62.41,57.95c-4.16,23.62,2.11,44.65,18.67,62.21c2.9,3.07,4.1,6.02,4.08,10.22
		c-0.15,36.85-0.16,73.69,0.01,110.54c0.02,4.28-1.12,5.54-5.43,5.45c-12.9-0.28-25.8,0.01-38.7-0.16
		c-4.77-0.06-8.85,0.84-11.66,5.02c0-139.62,0-279.24,0-419.15C94.96,16.1,179.59,16.1,264.21,16.1z"/>
	<path class="st0" d="M312.51,477.91c-95.55,0-190.66,0-286.01,0c0-10.44,0-20.63,0-31.18c95.25,0,190.47,0,286.01,0
		C312.51,456.99,312.51,467.3,312.51,477.91z"/>
	<path class="st0" d="M82.43,319.56c21,9.63,41.87,9.71,63-0.09c0,37.01,0,73.59,0,110.49c-20.93,0-41.82,0-63,0
		C82.43,393.21,82.43,356.63,82.43,319.56z M113.91,382.55c0-7.46,0.04-14.91-0.01-22.37c-0.05-5.8-3.24-9.57-7.96-9.57
		c-4.71-0.01-7.91,3.71-7.93,9.55c-0.06,14.91-0.06,29.83,0,44.74c0.02,5.84,3.19,9.56,7.9,9.58c4.7,0.01,7.95-3.78,7.99-9.55
		C113.96,397.47,113.91,390.01,113.91,382.55z"/>
	<path class="st0" d="M205.65,112.4c15,27.46,18.69,31.14,42.97,42.87c-23.06,23.06-46.29,46.3-69.63,69.64
		c-9.45-19.53-25.37-33.19-46.76-39.07C156.6,161.46,181.14,136.92,205.65,112.4z M210.45,151.27c-2.09-2.47-3.56-5.35-5.91-6.72
		c-3.4-1.98-6.88-0.59-9.65,2.19c-10.09,10.09-20.23,20.14-30.27,30.29c-3.88,3.93-4.07,8.6-0.81,11.98
		c3.45,3.57,8.06,3.4,12.27-0.76c10.05-9.92,20.05-19.89,29.93-29.97C207.65,156.62,208.59,154.27,210.45,151.27z"/>
	<path class="st0" d="M273.32,143.32c-30.68,0.1-55.66-24.53-55.81-55.02c-0.16-30.9,25.05-56.35,55.74-56.27
		c30.48,0.07,55.36,24.97,55.47,55.5C328.83,118.49,304.27,143.22,273.32,143.32z M312.93,87.66c-0.14-21.9-18-39.75-39.77-39.75
		c-21.96,0-39.91,18.18-39.74,40.25c0.17,21.81,18.56,39.99,40.01,39.53C295.54,127.22,313.07,109.45,312.93,87.66z"/>
	<path class="st0" d="M114.44,199.43c31.23,0.75,55.7,25.82,54.99,56.32c-0.73,31.12-26.15,55.9-56.37,54.95
		c-31.07-0.97-55.53-25.95-54.91-56.08C58.8,223.59,84.17,198.7,114.44,199.43z M113.69,215.13c-21.73,0.26-39.83,18.5-39.74,40.02
		c0.1,21.65,18.26,40.15,39.89,39.78c23.02-0.4,40.06-17.71,39.78-40.15C153.33,231.49,135.74,215.88,113.69,215.13z"/>
	<path class="st0" d="M339.8,114.49c23.65,26.78,46.83,53.04,70.19,79.51c-11.01,5.03-18.52,12.92-23.16,24.06
		c-27.68-21.82-55.1-43.43-82.99-65.4C320.49,144.25,332.26,131.72,339.8,114.49z"/>
	<path class="st0" d="M472.31,361.57c-5.25-2.63-9.89-4.73-14.25-7.3c-1.02-0.6-1.56-2.79-1.57-4.26
		c-0.1-17.41-0.06-34.82-0.07-52.23c-0.01-8.19-2.71-10.9-10.88-10.91c-13.99-0.02-27.98-0.02-41.96,0
		c-8.32,0.01-11.08,2.76-11.1,11.24c-0.04,17.1-0.11,34.2,0.07,51.3c0.03,3.31-1.03,5.09-4.01,6.34c-3.68,1.54-7.2,3.47-11.32,5.49
		c-0.13-1.88-0.3-3.19-0.3-4.51c-0.02-19.74,0.39-39.5-0.14-59.22c-0.41-15.44,10.24-26.86,26.77-26.57
		c13.98,0.25,27.97,0.02,41.96,0.06c16.82,0.04,26.74,9.88,26.78,26.6C472.34,318.57,472.31,339.55,472.31,361.57z"/>
	<path class="st0" d="M401.19,254.8c0-9.51-0.72-18.57,0.17-27.47c1.21-12.1,12.39-20.56,24.66-19.87
		c11.82,0.67,21.73,10.56,22.08,22.42c0.24,8.2,0.05,16.42,0.05,24.93C432.27,254.8,416.68,254.8,401.19,254.8z"/>
	<path d="M113.91,382.55c0,7.46,0.04,14.91-0.01,22.37c-0.05,5.76-3.29,9.56-7.99,9.55c-4.71-0.01-7.88-3.73-7.9-9.58
		c-0.06-14.91-0.06-29.83,0-44.74c0.02-5.83,3.22-9.55,7.93-9.55c4.72,0.01,7.92,3.78,7.96,9.57
		C113.96,367.64,113.91,375.1,113.91,382.55z"/>
	<path d="M210.45,151.27c-1.86,3-2.8,5.35-4.43,7.02c-9.88,10.08-19.88,20.05-29.93,29.97c-4.21,4.16-8.82,4.32-12.27,0.76
		c-3.26-3.37-3.07-8.05,0.81-11.98c10.03-10.15,20.18-20.2,30.27-30.29c2.78-2.78,6.25-4.17,9.65-2.19
		C206.89,145.92,208.36,148.8,210.45,151.27z"/>
	<path d="M312.93,87.66c0.14,21.79-17.4,39.56-39.5,40.04c-21.44,0.46-39.84-17.72-40.01-39.53c-0.17-22.07,17.77-40.25,39.74-40.25
		C294.93,47.91,312.79,65.75,312.93,87.66z M273,111.46c13.15,0.05,23.81-10.37,23.91-23.39c0.11-13.18-10.78-24.2-23.83-24.11
		c-12.91,0.08-23.73,10.91-23.78,23.8C249.26,100.67,259.99,111.41,273,111.46z"/>
	<path d="M113.69,215.13c22.05,0.75,39.64,16.36,39.93,39.65c0.28,22.44-16.76,39.75-39.78,40.15
		c-21.63,0.38-39.79-18.13-39.89-39.78C73.86,233.63,91.96,215.4,113.69,215.13z M137.5,255.31c0.1-13.31-10.14-23.75-23.39-23.86
		c-13.26-0.11-23.73,10.15-23.88,23.41c-0.15,13.19,10.2,23.73,23.43,23.86C126.92,278.84,137.4,268.55,137.5,255.31z"/>
	<path class="st0" d="M273,111.46c-13.01-0.05-23.74-10.79-23.69-23.71c0.05-12.88,10.87-23.71,23.78-23.8
		c13.05-0.08,23.93,10.94,23.83,24.11C296.81,101.09,286.15,111.51,273,111.46z"/>
	<path class="st0" d="M137.5,255.31c-0.1,13.24-10.58,23.54-23.84,23.41c-13.23-0.12-23.58-10.66-23.43-23.86
		c0.15-13.26,10.62-23.52,23.88-23.41C127.36,231.56,137.6,242,137.5,255.31z"/>
</g>
</svg>
